<svg xmlns="http://www.w3.org/2000/svg" viewBox="0 0 32 32"><path d="M28 16.297a12.002 12.002 0 01-8.2 11.382c-.608.117-.825-.256-.825-.577 0-.393.015-1.687.015-3.29a2.863 2.863 0 00-.815-2.223c2.674-.297 5.48-1.31 5.48-5.92a4.629 4.629 0 00-1.234-3.22 4.308 4.308 0 00-.12-3.174s-1.005-.323-3.296 1.23a11.377 11.377 0 00-6.008 0c-2.293-1.553-3.3-1.23-3.3-1.23a4.314 4.314 0 00-.118 3.175 4.637 4.637 0 00-1.235 3.22c0 4.597 2.801 5.626 5.466 5.929a2.563 2.563 0 00-.762 1.604 2.555 2.555 0 01-3.492-.997 2.52 2.52 0 00-1.838-1.237s-1.172-.015-.083.73a3.177 3.177 0 011.332 1.755s.705 2.333 4.043 1.608c.006 1.001.016 1.756.016 2.04 0 .318-.219.689-.819.579A11.999 11.999 0 1128 16.297z" fill="#262626" fill-rule="evenodd"/></svg>