<svg xmlns="http://www.w3.org/2000/svg" viewBox="0 0 32 32"><path d="M16 6.162c3.204 0 3.584.012 4.849.07a6.64 6.64 0 012.228.413 3.974 3.974 0 012.278 2.278 6.64 6.64 0 01.413 2.228c.058 1.265.07 1.645.07 4.849s-.012 3.584-.07 4.849a6.64 6.64 0 01-.413 2.228 3.974 3.974 0 01-2.278 2.278 6.64 6.64 0 01-2.228.413c-1.265.058-1.645.07-4.849.07s-3.584-.012-4.849-.07a6.64 6.64 0 01-2.228-.413 3.974 3.974 0 01-2.278-2.278 6.64 6.64 0 01-.413-2.228c-.058-1.265-.07-1.645-.07-4.849s.012-3.584.07-4.849a6.64 6.64 0 01.413-2.228 3.974 3.974 0 012.278-2.278 6.64 6.64 0 012.228-.413c1.265-.058 1.645-.07 4.849-.07M16 4c-3.259 0-3.668.014-4.948.072a8.808 8.808 0 00-2.912.558 6.136 6.136 0 00-3.51 3.51 8.808 8.808 0 00-.558 2.912C4.014 12.332 4 12.741 4 16s.014 3.668.072 4.948a8.808 8.808 0 00.558 2.912 6.136 6.136 0 003.51 3.51 8.808 8.808 0 002.912.558c1.28.058 1.689.072 4.948.072s3.668-.014 4.948-.072a8.808 8.808 0 002.912-.558 6.136 6.136 0 003.51-3.51 8.808 8.808 0 00.558-2.912c.058-1.28.072-1.689.072-4.948s-.014-3.668-.072-4.948a8.808 8.808 0 00-.558-2.912 6.136 6.136 0 00-3.51-3.51 8.808 8.808 0 00-2.912-.558C19.668 4.014 19.259 4 16 4zm0 5.838A6.162 6.162 0 1022.162 16 6.162 6.162 0 0016 9.838zM16 20a4 4 0 114-4 4 4 0 01-4 4zm6.406-11.846a1.44 1.44 0 101.44 1.44 1.44 1.44 0 00-1.44-1.44z" fill="#262626"/></svg>